# xmcd
#
# Track frame offsets:
#	150
#	16806
#	31869
#	52305
#	66483
#	84570
#	104184
#	121529
#	139148
#	156902
#
# Disc length: 2315 seconds
#
# Revision: 1
# Processed by: cddbd v1.5.2PL0 Copyright (c) Steve Scherf et al.
# Submitted via: audiograbber 1.83.01
#
DISCID=8909090a
DTITLE=Jenni Jaakkola - Siipeni Mun
DYEAR=2013
DGENRE=Pop
TTITLE0=Tämä On Unta
TTITLE1=N-Y-T
TTITLE2=Sinä Ja Vaahteranlehdet
TTITLE3=Minä Ja Siipeni Mun
TTITLE4=Palelen Vieläkin
TTITLE5=Kaunis Sydän
TTITLE6=Syleilen Maailmaa
TTITLE7=Sua Odotan
TTITLE8=Mun Maailma
TTITLE9=Bestiksii
EXTD=TR.
EXTT0=
EXTT1=
EXTT2=
EXTT3=
EXTT4=
EXTT5=
EXTT6=
EXTT7=
EXTT8=
EXTT9=
PLAYORDER=
